**ABCDEFGHIJKLMNOPQRSTUVWXYZabcdefghijklmnopqrstuvwxyz**************************
**PARASOLID !"#$%&'()*+,-./:;<=>?@[\]^_`{|}~0123456789**************************
**PART1;
MC=AMD64;
MC_MODEL=Intel64 Family 6 Model 42 Stepping 7, GenuineIntel;
MC_ID=unknown;
OS=Windows_NT;
OS_RELEASE=unknown;
FRU=Parasolid Version 25.1, build 239,  8-18-2014;
APPL=SolidWorks 2014-2014292;
SITE=;
USER=unknown;
FORMAT=text;
GUISE=transmit;
KEY=IRB120_3-58_IRC5_Link6_rev1;
FILE=IRB120_3-58_IRC5_Link6_rev1.x_t;
DATE=Fri Dec 23 13:14:53 2016;
**PART2;
SCH=SCH_2501239_25001;
USFLD_SIZE=0;
**PART3;
**END_OF_HEADER*****************************************************************
T51 : TRANSMIT FILE created by modeller version 250123923 SCH_2501239_25001_1300
6189 0 12 29 CCCCCCCCCCCCCDI5 owner1040 0 CCCCCCCCCA16 index_map_offset0 0 1 dA9
 index_map82 0 A17 node_id_index_map82 0 A20 schema_embedding_map82 0 A5 child12
 0 A14 lowest_node_id0 0 1 dZ1 1565 2 3 0 0 0 0 1e3 1e-8 0 4 0 1 0 1 1 5 6 7 8 9
 10 11 0 0 0 0 0 0 81 255 2 2 1463 12 1 0 0 0 0 13 0 70 11 CI9 list_type0 0 1 uI
10 notransmit0 0 1 lCCCDCCDI12 finger_index0 0 1 dI12 finger_block1012 0 CZ3 0 4
 T1 0 0 4 20 1 14 14 13 255 5 1274 0 1 0 15 0 0 16 0 50 255 6 1257 0 15 17 0 0 +
0 0 .007 0 0 -1 -1 0 0 31 255 7 1351 0 18 19 0 0 -0 0 .007 0 0 -1 -1 0 0 .01 29
 255 8 1349 0 20 21 0 .019753 1573117468178625e-33 .012847 19 8 CCCCCCCA5 owner1
2 0 Z9 1275 0 1 16 0 22 V0 16 255 10 9 0 ?23 0 24 25 0 0 1 18 255 11 95 0 26 0 2
7 28 ?1 17 255 26 0 29 30 31 11 32 33 0 34 +18 27 96 0 31 11 35 36 ?1 29 28 1294
 0 11 37 38 .01999376773435915 -.000499251223833892 .0126 29 37 1288 0 39 36 28
 .0199937490231322 5e-4 .009 29 38 1301 0 35 28 40 .0199937490231322 5e-4 .0126
 18 35 134 0 30 27 39 38 ?1 29 40 1303 0 41 38 21 .019753 5e-4 .0128406728606463
2 18 41 285 0 42 43 44 40 ?1 29 21 1348 0 45 40 8 .019753 -.000499251226075081 .
01284069179382192 18 45 177 0 46 39 20 21 ?1 17 46 0 47 48 49 45 50 51 0 52 -18
 39 139 0 53 35 45 37 ?1 18 20 182 0 50 45 54 8 ?1 17 50 0 55 42 56 20 46 51 0 4
9 +18 54 218 0 57 20 43 58 206155281280883e-22 1 17 57 0 59 60 61 54 62 63 0 64
 -18 43 248 0 65 54 41 66 206155281280883e-22 1 29 58 501 0 54 0 66 .019753 -.00
0499251223833896 .009 29 66 510 0 43 58 67 .019753 5e-4 .009 29 67 1223 0 44 66
 68 .0111369318037191 .01113693180368802 .001338192699989804 18 44 892 0 69 41 7
0 67 206155557011977e-22 1 29 68 1227 0 70 67 71 -.0111369318036907 .01113693180
368818 .001338192699961382 18 70 946 0 72 44 73 68 2061555570119775e-23 1 29 71
 1231 0 73 68 74 -.0111369318036907 -.0111369318036881 .001338192699961382 18 73
 1000 0 75 70 76 71 2061555570119775e-23 1 29 74 1235 0 76 71 77 .01113693180371
91 -.0111369318036881 .001338192699989804 18 76 1054 0 78 73 79 74 2061555570119
77e-22 1 29 77 1239 0 79 74 36 85265128291212e-27 -.01575 .00449784845244494 18
 79 1108 0 80 76 0 77 2061558978343845e-23 1 29 36 1285 0 27 77 37 .019993767734
35915 -.000499251223833892 .009 17 80 0 81 80 80 79 0 0 0 0 ?15 255 81 1383 0 80
 82 83 14 255 82 1102 84 1e-8 85 86 81 5 87 -0 0 86 85 22 15 83 1104 0 88 82 0 1
7 88 0 83 88 88 0 89 90 0 0 +17 89 0 91 89 89 0 88 90 0 0 -16 90 765 0 ?88 92 93
 94 0 0 1 16 92 705 0 ?95 96 90 97 0 0 1 16 93 826 0 ?98 90 18 99 0 0 1 31 94 11
22 0 90 97 99 0 +0 -.01575 .006 0 0 1 1 0 0 .0025 31 97 1068 0 92 100 94 0 +.011
13693180368814 -.0111369318036881 .0026 0 0 1 1 0 0 .0021 31 99 1160 0 93 94 25
 0 +0 0 .0126 0 0 1 1 0 0 .01 31 25 1280 0 10 99 101 0 +0 0 0 0 0 1 1 0 0 .0196
 31 101 1284 0 102 25 103 0 +0 0 .009 0 0 -1 -1 0 0 .02 16 102 91 0 ?31 33 104 1
01 0 0 1 38 255 103 1293 0 105 101 106 0 +107 108 109 110 111 16 105 172 0 ?56 1
04 112 103 0 0 1 31 106 1296 0 112 103 113 0 +0 173472347597672e-34 .013 0 -4336
808689942015e-32 -1 0 1 -4336808689942015e-32 .0196 50 107 220 0 114 108 115 116
 +.019753 -.000499251223833896 .009 0 -1 0 0 0 -1 52 255 108 183 0 117 118 107 1
19 +0 0 .0126 0 -4336808689942015e-32 -1 .02 .707106781186545 .707106781186551 0
 1 -4336808689942015e-32 40 255 2 109 0 1 2 654312388524403e-24 3820750131724555
e-21 ??.01999376773435915 -.000499251223833896 .0126 .01975300015904335 -.000499
251223833896 .01284069163488598 41 255 1 110 L.01999376773435915 -.0004992512238
33896 .0126 41 1 111 L.01975300015904335 -.000499251223833896 .01284069163488598
 14 117 168 120 1e-8 121 114 122 5 108 +0 0 114 121 22 51 255 118 99 0 121 123 1
08 0 +0 0 .013 0 0 -1 .02 -1 0 0 141 255 119 103 124 125 108 141 124 19 126 119
 108 141 125 127 119 126 108 137 255 127 512 0 128 129 130 0 -108 131 0 ?141 126
 113 125 124 108 38 113 1300 0 132 106 133 0 +134 108 135 136 137 16 132 281 0 ?
138 63 139 113 0 0 1 31 133 1309 0 140 113 141 0 -.01113693180368822 .0111369318
0368802 .013 0 0 1 1 0 0 .0021 50 134 289 0 142 115 143 144 +.0199937490231322 5
e-4 .009 0 1 0 0 0 1 40 2 135 0 1 2 656174466735613e-24 383192230230213e-20 ??.0
19753 5e-4 .01284067286064632 .0199937490231322 5e-4 .0126 41 1 136 L.019753 5e-
4 .01284067286064632 41 1 137 L.0199937490231322 5e-4 .0126 14 142 278 145 1e-8
 146 147 148 5 134 -0 0 147 146 22 50 115 253 0 146 107 134 0 +.019753 5e-4 .009
 0 0 -1 -1 0 0 50 143 403 0 147 134 149 0 +0 0 .013 0 0 1 1 0 0 141 144 113 144
 144 134 14 147 366 150 1e-8 142 151 152 5 143 +0 0 151 142 22 50 149 477 0 151
 143 153 154 +.019753 -.000499251223833896 .009 -1 0 0 0 0 1 14 151 464 155 1e-8
 147 156 47 5 149 -0 0 156 147 22 51 153 533 0 156 149 157 0 +.01113693180368822
 .01113693180368802 .013 0 0 1 .0021 1 0 0 141 154 19 154 154 149 38 19 1347 0 5
1 158 7 0 +149 108 159 160 161 16 51 468 0 ?50 162 163 19 0 0 1 31 158 1339 0 16
2 164 19 0 -0 0 .013 0 834001671142694e-31 1 0 -1 834001671142694e-31 .0104 40 2
 159 0 1 2 63081821263188e-19 .02526126025307435 ??.0197530000581958 -.000499251
228925411 .01284069181787398 .019753 1930658937552165e-33 .012847 41 1 160 L.019
7530000581958 -.000499251228925411 .01284069181787398 41 1 161 L.019753 19306589
37552165e-33 .012847 16 162 387 0 ?165 166 51 158 0 0 1 31 164 1333 0 166 167 15
8 0 -0 -.01575 .013 0 0 1 1 0 0 .0025 16 166 383 0 ?168 169 162 164 0 0 1 31 167
 1327 0 169 170 164 0 -.01113693180368814 -.0111369318036881 .013 0 0 1 1 0 0 .0
021 16 169 381 0 ?171 172 166 167 0 0 1 31 170 1321 0 172 141 167 0 --.011136931
80368814 -.0111369318036881 .013 0 0 1 1 0 0 .0021 16 172 379 0 ?173 174 169 170
 0 0 1 31 141 1315 0 174 133 170 0 --.01113693180368806 .01113693180368818 .013
 0 0 1 1 0 0 .0021 16 174 377 0 ?175 140 172 141 0 0 1 17 175 0 176 175 175 0 17
7 174 0 0 +16 140 375 0 ?178 128 174 133 0 0 1 17 178 0 152 178 178 0 179 140 0
 0 +16 128 305 0 ?42 139 140 127 0 0 1 17 42 0 55 138 50 41 49 128 0 180 +16 139
 282 0 ?181 132 128 182 0 0 1 17 181 0 47 49 62 41 65 139 0 0 +133 255 182 498 0
 139 183 129 0 +129 .019753 5e-4 .009 .019753 5e-4 .01284067286064632 0 .0038406
72860646325 30 255 183 462 0 1 184 182 185 +.019753 5e-4 .009 0 1 0 30 129 499 0
 1 182 127 186 +.019753 5e-4 .009 0 0 1 141 186 182 186 186 129 133 184 461 0 63
 187 183 0 +183 .019753 -.000499251223833896 .009 .019753 5e-4 .009 -.0009992512
23833896 -1084202172485504e-34 141 185 184 185 185 183 16 63 244 0 ?62 188 132 1
84 0 0 1 30 187 354 0 1 189 184 190 +.019753 -.000499251223833896 .009 0 0 -1 13
3 189 353 0 191 192 187 0 +187 .019753 -.000499251226075081 .01284069179382192 .
019753 -.000499251223833896 .009 -.003840691793821925 0 141 190 189 190 190 187
 16 191 215 0 ?48 193 188 189 0 0 1 30 192 339 0 104 194 189 0 +.019993749023132
2 5e-4 .013 0 0 -1 16 104 128 0 ?195 102 105 192 0 0 1 30 194 257 0 1 196 192 19
7 -.019753 5e-4 .009 -1 0 0 133 196 258 0 188 198 194 0 +194 .019753 5e-4 .009 .
0199937490231322 5e-4 .009 0 -.0002407490231322065 141 197 196 197 197 194 16 18
8 243 0 ?199 191 63 196 0 0 1 30 198 236 0 1 200 196 201 +.019753 -.000499251223
833896 .009 1 0 0 133 200 235 0 193 202 198 0 +198 .019753 -.000499251223833896
 .009 .01999376773435915 -.000499251223833892 .009 0 .0002407677343591355 141 20
1 200 201 201 198 16 193 214 0 ?60 112 191 200 0 0 1 30 202 207 0 33 203 200 0 -
.01999376773435915 -.000499251223833888 .013 0 0 -1 16 33 90 0 ?26 204 102 202 0
 0 1 31 203 166 0 1 205 202 206 +0 0 .0126 0 0 -1 -1 0 0 .02 133 205 165 0 204 2
07 203 0 +203 .01999376773435915 -.000499251223833892 .0126 .0199937490231322 5e
-4 .0126 3.166557807993265 9.39977535587002 141 206 205 206 206 203 16 204 89 0
 ?30 24 33 205 0 0 1 31 207 118 0 24 0 205 0 -0 0 .0004000000000000255 0 0 1 1 0
 0 .02 16 24 27 0 ?208 10 204 207 0 0 1 17 208 0 209 208 208 0 210 24 0 0 +15 20
9 26 0 208 211 0 17 210 0 212 210 210 0 208 24 0 0 -15 212 86 0 210 121 0 14 121
 84 213 1e-8 211 117 29 5 118 +0 0 117 211 22 81 1 213 1549 214 121 215 0 155 21
6 217 14 211 24 216 1e-8 218 121 219 5 123 +0 0 121 218 22 15 29 1359 0 195 121
 212 13 22 3 0 0 0 0 0 0 9 218 14 218 2 220 1e-8 0 211 221 5 222 -0 0 211 0 22 8
1 1 220 1551 214 218 223 0 216 224 225 15 221 7 0 226 218 0 50 222 12 0 218 0 12
3 0 +0 0 0 0 0 1 1 0 0 52 123 35 0 211 222 118 0 +0 0 .0004000000000000255 0 0 1
 .02 .707106781186544 .707106781186551 1 0 0 17 226 0 221 226 226 0 23 10 0 0 -1
7 23 0 219 23 23 0 226 10 0 0 +15 219 1357 0 23 211 209 80 255 1 214 227 228 900
0 1 1 1 1 1 1 1 1 0 FFFFTFTFFFFFFF1 81 1 223 1487 229 218 0 220 230 0 231 81 1 2
16 1550 214 211 230 0 213 220 232 81 1 224 1552 214 114 233 0 220 234 235 82 255
 1 225 999999 14 114 209 224 1e-8 117 146 236 5 107 -0 0 146 117 22 81 1 233 148
3 229 114 0 224 237 238 239 81 1 234 1553 214 146 237 0 224 240 241 82 1 235 999
999 14 146 240 234 1e-8 114 142 59 5 115 -0 0 142 114 22 81 1 237 1482 229 146 0
 234 242 233 243 81 1 240 1554 214 156 244 0 234 245 246 82 1 241 999999 14 156
 522 240 1e-8 151 247 248 5 153 -0 0 247 151 22 81 1 244 1478 229 156 0 240 249
 250 251 81 1 245 1555 214 247 249 0 240 252 253 82 1 246 999999 14 247 582 245
 1e-8 156 254 255 5 157 -0 0 254 156 22 81 1 249 1477 229 247 0 245 256 244 257
 81 1 252 1556 214 254 256 0 245 258 259 82 1 253 999999 14 254 642 252 1e-8 247
 260 261 5 262 -0 0 260 247 22 81 1 256 1476 229 254 0 252 263 249 264 81 1 258
 1557 214 260 263 0 252 265 266 82 1 259 999999 14 260 702 258 1e-8 254 267 268
 5 269 -0 0 267 254 22 81 1 263 1475 229 260 0 258 270 256 271 81 1 265 1558 214
 267 270 0 258 272 273 82 1 266 999999 14 267 762 265 1e-8 260 274 275 5 276 -0
 0 274 260 22 81 1 270 1474 229 267 0 265 277 263 278 81 1 272 1559 214 274 277
 0 265 279 280 82 1 273 999999 14 274 822 272 1e-8 267 281 282 5 283 -0 0 281 26
7 22 81 1 277 1473 229 274 0 272 284 270 285 81 1 279 1560 214 281 284 0 272 286
 287 82 1 280 999999 14 281 886 279 1e-8 274 288 289 5 290 -0 0 288 274 22 81 1
 284 1472 229 281 0 279 291 277 292 81 1 286 1561 214 288 291 0 279 293 294 82 1
 287 999999 14 288 940 286 1e-8 281 295 296 5 297 -0 0 295 281 22 81 1 291 1471
 229 288 0 286 298 284 299 81 1 293 1562 214 295 298 0 286 300 301 82 1 294 9999
99 14 295 994 293 1e-8 288 85 302 5 303 -0 0 85 288 22 81 1 298 1470 229 295 0 2
93 304 291 305 81 1 300 1563 214 85 304 0 293 306 307 82 1 301 999999 14 85 1048
 300 1e-8 295 82 308 5 309 -0 0 82 295 22 81 1 304 1469 229 85 0 300 310 298 311
 81 1 306 1564 214 86 312 0 300 313 314 82 1 307 999999 14 86 1162 306 1e-8 82 1
5 315 5 17 -0 0 15 82 22 81 1 312 1467 229 86 0 306 316 310 317 81 1 313 1565 21
4 15 316 0 306 0 318 82 1 314 999999 14 15 1250 313 1e-8 86 0 319 5 6 -0 0 0 86
 22 81 1 316 1466 229 15 320 313 0 312 321 82 1 318 999999 80 1 229 0 322 8001 0
 0 0 0 3 5 0 0 0 FFFFTFTFFFFFFF2 81 1 320 1464 323 15 0 316 0 0 324 83 255 3 321
 .250980392156863 .250980392156863 .250980392156863 80 1 323 325 326 8017 0 0 0
 0 0 0 0 0 0 TTTTTTTTTTTTTF3 84 255 1 324 N79 255 13 326 SDL/TYSA_NAME79 15 322
 SDL/TYSA_COLOUR15 319 1252 0 327 15 0 17 327 0 319 327 327 0 328 18 0 0 +17 328
 0 329 328 328 0 327 18 0 0 -16 18 1168 0 ?327 93 0 7 0 0 1 15 329 1164 0 328 86
 0 81 1 310 1468 229 82 0 84 312 304 330 83 3 317 .250980392156863 .250980392156
863 .250980392156863 81 1 84 1544 214 82 310 0 0 120 331 83 3 330 .2509803921568
63 .250980392156863 .250980392156863 81 1 120 1545 214 117 238 0 84 145 332 82 1
 331 999999 81 1 238 1484 229 117 0 120 233 215 333 81 1 145 1546 214 142 242 0
 120 150 334 82 1 332 999999 81 1 242 1481 229 142 0 145 335 237 336 81 1 150 15
47 214 147 335 0 145 155 337 82 1 334 999999 81 1 335 1480 229 147 0 150 250 242
 338 81 1 155 1548 214 151 250 0 150 213 339 82 1 337 999999 81 1 250 1479 229 1
51 0 155 244 335 340 82 1 339 999999 83 3 340 .250980392156863 .250980392156863
 .250980392156863 83 3 338 .250980392156863 .250980392156863 .250980392156863 83
 3 336 .250980392156863 .250980392156863 .250980392156863 81 1 215 1485 229 121
 0 213 238 230 341 83 3 333 .250980392156863 .250980392156863 .250980392156863 8
1 1 230 1486 229 211 0 216 215 223 342 83 3 341 .250980392156863 .25098039215686
3 .250980392156863 83 3 342 .250980392156863 .250980392156863 .250980392156863 1
5 315 1385 0 98 86 329 51 17 1173 0 86 87 6 0 +0 0 .013 0 0 -1 .01 -1 0 0 52 87
 1111 0 82 309 17 0 +0 -.01575 .00600000000002865 0 0 1 .00250000000005457 .8571
67300699664 .515038074914129 1 0 0 52 309 1057 0 85 303 87 0 +.01113693180368814
 -.0111369318036881 .002599999999972625 0 0 1 .002100000000072255 .8571673006975
17 .515038074917703 1 0 0 52 303 1003 0 295 297 309 0 +-.01113693180368814 -.011
1369318036881 .00260000000002947 0 0 1 .002100000000067165 .857167300686172 .515
038074936584 1 0 0 52 297 949 0 288 290 303 0 +-.01113693180368806 .011136931803
68818 .00260000000002947 0 0 1 .00210000000006709 .857167300686156 .515038074936
61 1 0 0 52 290 895 0 281 283 297 0 +.01113693180368822 .01113693180368802 .0025
99999999972625 0 0 1 .00210000000007218 .857167300697501 .515038074917728 1 0 0
 52 283 833 0 274 276 290 0 +0 0 .013 0 834001671142694e-31 1 .0104 .70710678118
6551 .707106781186545 0 -1 834001671142694e-31 51 276 773 0 267 269 283 0 +0 -.0
1575 .013 0 0 1 .0025 1 0 0 51 269 713 0 260 262 276 0 +.01113693180368814 -.011
1369318036881 .013 0 0 1 .0021 1 0 0 51 262 653 0 254 157 269 0 +-.0111369318036
8814 -.0111369318036881 .013 0 0 1 .0021 1 0 0 51 157 593 0 247 153 262 0 +-.011
13693180368806 .01113693180368818 .013 0 0 1 .0021 1 0 0 17 98 0 315 98 98 0 343
 93 0 0 +17 343 0 282 343 343 0 98 93 0 0 -15 282 1373 0 343 274 344 15 344 824
 0 345 274 0 17 345 0 344 345 345 0 165 162 0 0 -17 165 0 346 165 165 0 345 162
 0 0 +15 346 374 0 165 147 0 83 3 311 .250980392156863 .250980392156863 .2509803
92156863 15 308 1381 0 78 85 347 17 78 0 308 78 78 76 0 0 0 0 ?15 347 1050 0 95
 85 0 17 95 0 347 95 95 0 348 92 0 0 +17 348 0 349 348 348 0 95 92 0 0 -15 349 7
04 0 348 260 0 83 3 305 .250980392156863 .250980392156863 .250980392156863 15 30
2 1379 0 75 295 350 17 75 0 302 75 75 73 0 0 0 0 ?15 350 996 0 351 295 0 17 351
 0 350 351 351 0 352 96 0 0 +17 352 0 353 352 352 0 351 96 0 0 -16 96 645 0 ?351
 354 92 100 0 0 1 16 354 585 0 ?355 163 96 356 0 0 1 31 100 1014 0 96 356 97 0 +
-.01113693180368814 -.0111369318036881 .0026 0 0 1 1 0 0 .0021 31 356 960 0 354
 130 100 0 +-.01113693180368806 .01113693180368818 .0026 0 0 1 1 0 0 .0021 31 13
0 906 0 163 127 356 0 +.01113693180368822 .01113693180368802 .0026 0 0 1 1 0 0 .
0021 16 163 525 0 ?357 51 354 130 0 0 1 17 357 0 358 357 357 0 359 163 0 0 +15 3
58 888 0 357 281 0 17 359 0 360 359 359 0 357 163 0 0 -15 360 524 0 359 156 0 17
 355 0 361 355 355 0 362 354 0 0 +15 361 942 0 355 288 0 17 362 0 363 362 362 0
 355 354 0 0 -15 363 584 0 362 247 0 15 353 644 0 352 254 0 83 3 299 .2509803921
56863 .250980392156863 .250980392156863 15 296 1377 0 72 288 361 17 72 0 296 72
 72 70 0 0 0 0 ?83 3 292 .250980392156863 .250980392156863 .250980392156863 15 2
89 1375 0 69 281 358 17 69 0 289 69 69 44 0 0 0 0 ?83 3 285 .250980392156863 .25
0980392156863 .250980392156863 83 3 278 .250980392156863 .250980392156863 .25098
0392156863 15 275 1371 0 364 267 91 17 364 0 275 364 364 0 168 166 0 0 -15 91 76
4 0 89 267 0 17 168 0 365 168 168 0 364 166 0 0 +15 365 372 0 168 147 366 15 366
 373 0 367 147 346 17 367 0 366 367 367 0 368 112 0 0 -17 368 0 122 368 368 0 36
7 112 0 0 +16 112 175 0 ?368 105 193 106 0 0 1 15 122 1361 0 368 117 55 15 55 17
0 0 56 117 0 17 56 0 55 50 369 45 34 105 0 0 +17 369 0 55 56 138 11 30 204 0 0 -
17 34 0 236 32 52 11 56 105 0 369 -15 236 211 0 32 114 0 17 32 0 236 64 34 27 26
 33 0 0 -17 52 0 236 34 64 45 48 191 0 56 -17 64 0 236 52 32 54 60 193 0 48 -17
 48 0 47 62 46 54 52 191 0 0 +15 47 466 0 46 151 0 17 62 0 47 181 48 43 57 63 0
 0 +17 60 0 59 53 57 27 64 193 0 32 +15 59 242 0 57 146 0 17 53 0 59 61 60 39 31
 102 0 199 -17 61 0 59 57 53 43 199 188 0 62 -17 31 0 29 26 195 27 53 102 0 60 +
17 199 0 148 370 65 39 61 188 0 195 +15 148 280 0 65 142 0 17 370 0 148 180 199
 35 195 104 0 0 -17 65 0 148 199 180 43 181 139 0 61 -17 195 0 29 31 30 39 370 1
04 0 0 +17 30 0 29 195 26 35 369 204 0 138 +17 138 0 55 369 42 35 180 132 0 370
 +17 180 0 148 65 370 41 138 132 0 181 -83 3 271 .752941176470588 .7529411764705
88 .752941176470588 15 268 1369 0 371 260 349 17 371 0 268 371 371 0 171 169 0 0
 -17 171 0 372 171 171 0 371 169 0 0 +15 372 371 0 171 147 365 83 3 264 .7529411
76470588 .752941176470588 .752941176470588 15 261 1367 0 373 254 353 17 373 0 26
1 373 373 0 173 172 0 0 -17 173 0 374 173 173 0 373 172 0 0 +15 374 370 0 173 14
7 372 83 3 257 .752941176470588 .752941176470588 .752941176470588 15 255 1365 0
 177 247 363 17 177 0 255 177 177 0 175 174 0 0 -83 3 251 .752941176470588 .7529
41176470588 .752941176470588 15 248 1363 0 179 156 360 17 179 0 248 179 179 0 17
8 140 0 0 -83 3 243 .250980392156863 .250980392156863 .250980392156863 83 3 239
 .250980392156863 .250980392156863 .250980392156863 82 1 232 999999 83 3 231 .25
0980392156863 .250980392156863 .250980392156863 79 14 228 SWEntUnchanged82 1 217
 999999 17 49 0 47 46 181 20 42 128 0 0 -15 152 368 0 178 147 176 15 176 369 0 1
75 147 374 134 255 131 0 0 0 0 0 0 +375 376 136 255 375 2 3 2 2 5 FFF1 377 378 3
79 135 255 376 2 0 45 255 6 377 1.54548912014321 -.0002406728606463 1.5581393468
8998 -.000246998734226949 1.570796326794895 -.0002470000000000095 127 255 2 378
 3 3 128 255 2 379 0 1 141 116 103 116 116 107 19 16 5 0 1 0 9 5 S0 74 4 CI16 in
dex_map_offset0 0 1 dCCZ20 14 4 0 0 313 2 320 223 0 0 0 0 0 0 0 0 0 0 0 0 0 0 0
 0 80 2 12 380 381 8004 0 0 0 0 3 5 0 0 0 FFTFFFFFFFFFFF2 3 83 1 13 1e3 79 16 38
1 SDL/TYSA_DENSITY1 0 
